<svg width="68" height="68" viewBox="0 0 68 68" fill="none" xmlns="http://www.w3.org/2000/svg">
<path d="M65.9393 33.0039H51.498V2.06072C51.498 0.924375 50.5737 0 49.4373 0H18.5627C17.4263 0 16.502 0.924375 16.502 2.06072V33.0039H2.06072C0.924375 33.0039 0 33.9283 0 35.0646V65.9393C0 67.0756 0.924375 68 2.06072 68H65.9393C67.0756 68 68 67.0756 68 65.9393V35.0646C68 33.9283 67.0756 33.0039 65.9393 33.0039ZM52.1674 34.9961V43.6503H48.8364V34.9961H52.1674ZM35.6655 1.99219V10.6464H32.3344V1.99219H35.6655ZM15.8324 34.9961H19.1635V43.6503H15.8324V34.9961ZM65.9393 66.0078H34.9961V34.9961H41.4525C42.0026 34.9961 42.4486 34.5501 42.4486 34C42.4486 33.4499 42.0026 33.0039 41.4525 33.0039H26.5475C25.9974 33.0039 25.5514 33.4499 25.5514 34C25.5514 34.5501 25.9974 34.9961 26.5475 34.9961H33.0039V66.0078H2.06072C2.02287 66.0078 1.99219 65.9771 1.99219 65.9393V35.0646C1.99219 35.0268 2.02287 34.9961 2.06072 34.9961H13.8403V44.6464C13.8403 45.1965 14.2862 45.6425 14.8364 45.6425H20.1596C20.7097 45.6425 21.1557 45.1965 21.1557 44.6464V34.9961H22.2883C22.8384 34.9961 23.2844 34.5501 23.2844 34C23.2844 33.4499 22.8384 33.0039 22.2883 33.0039H18.4941V2.06072C18.4941 2.02287 18.5248 1.99219 18.5627 1.99219H30.3422V11.6425C30.3422 12.1926 30.7882 12.6386 31.3383 12.6386H36.6616C37.2117 12.6386 37.6577 12.1926 37.6577 11.6425V1.99219H49.4372C49.475 1.99219 49.5057 2.02287 49.5057 2.06072V33.0039H45.7114C45.1613 33.0039 44.7153 33.4499 44.7153 34C44.7153 34.5501 45.1613 34.9961 45.7114 34.9961H46.844V44.6464C46.844 45.1965 47.29 45.6425 47.8401 45.6425H53.1634C53.7135 45.6425 54.1595 45.1965 54.1595 44.6464V34.9961H65.939C65.9769 34.9961 66.0075 35.0268 66.0075 35.0646V65.9393H66.0078C66.0078 65.9771 65.9771 66.0078 65.9393 66.0078Z" fill="#DA112B"/>
</svg>
