<svg width="68" height="58" viewBox="0 0 68 58" fill="none" xmlns="http://www.w3.org/2000/svg">
<path d="M5.25458 4.25879H5.24396C4.69385 4.25879 4.25317 4.70464 4.25317 5.25488C4.25317 5.80513 4.70447 6.25098 5.25458 6.25098C5.80469 6.25098 6.25068 5.80513 6.25068 5.25488C6.25068 4.70464 5.80483 4.25879 5.25458 4.25879Z" fill="#DA112B"/>
<path d="M11.6425 4.25879H11.6319C11.0818 4.25879 10.6411 4.70464 10.6411 5.25488C10.6411 5.80513 11.0924 6.25098 11.6425 6.25098C12.1926 6.25098 12.6386 5.80513 12.6386 5.25488C12.6386 4.70464 12.1926 4.25879 11.6425 4.25879Z" fill="#DA112B"/>
<path d="M8.44867 4.25879H8.43805C7.88794 4.25879 7.44727 4.70464 7.44727 5.25488C7.44727 5.80513 7.89856 6.25098 8.44867 6.25098C8.99878 6.25098 9.44477 5.80513 9.44477 5.25488C9.44477 4.70464 8.99878 4.25879 8.44867 4.25879Z" fill="#DA112B"/>
<path d="M62.7456 4.25879H53.1638C52.6137 4.25879 52.1677 4.70464 52.1677 5.25488C52.1677 5.80513 52.6137 6.25098 53.1638 6.25098H62.7456C63.2957 6.25098 63.7417 5.80499 63.7417 5.25488C63.7417 4.70451 63.2957 4.25879 62.7456 4.25879Z" fill="#DA112B"/>
<path d="M48.9051 4.25879H15.9011C15.351 4.25879 14.905 4.70464 14.905 5.25488C14.905 5.80513 15.351 6.25098 15.9011 6.25098H48.9051C49.4552 6.25098 49.9012 5.80513 49.9012 5.25488C49.9012 4.70464 49.4552 4.25879 48.9051 4.25879Z" fill="#DA112B"/>
<path d="M63.8102 0H4.18998C1.87957 0 0 1.87957 0 4.18998V53.1636C0 55.474 1.87957 57.3536 4.18998 57.3536H63.81C66.1204 57.3536 68 55.474 68 53.1636V4.18998C68.0001 1.87957 66.1206 0 63.8102 0ZM66.0079 53.1636C66.0079 54.3754 65.0221 55.3614 63.8102 55.3614H4.18998C2.97806 55.3614 1.99219 54.3754 1.99219 53.1636V10.5095H58.4874C59.0375 10.5095 59.4835 10.0636 59.4835 9.51338C59.4835 8.96313 59.0375 8.51728 58.4874 8.51728H1.99219V4.18998C1.99219 2.97819 2.97806 1.99219 4.18998 1.99219H63.81C65.0219 1.99219 66.0078 2.97819 66.0078 4.18998V8.51715H62.7453C62.1952 8.51715 61.7492 8.963 61.7492 9.51325C61.7492 10.0635 62.1952 10.5093 62.7453 10.5093H66.0079V53.1636Z" fill="#DA112B"/>
<path d="M37.1255 24.9506V24.4183C37.1255 24.2317 37.0731 24.0487 36.9741 23.8903L31.6509 15.3732C31.4688 15.0819 31.1496 14.905 30.8062 14.905H11.6426C11.2992 14.905 10.98 15.0819 10.7979 15.3732L5.47465 23.8902C5.3757 24.0484 5.32324 24.2314 5.32324 24.4181V24.9505C5.32324 26.5972 6.17099 28.049 7.4525 28.8943V40.4563H7.38397C6.83385 40.4563 6.38787 40.9022 6.38787 41.4524C6.38787 42.0027 6.83385 42.4485 7.38397 42.4485H35.0647C35.6148 42.4485 36.0608 42.0027 36.0608 41.4524C36.0608 40.9022 35.6148 40.4563 35.0647 40.4563H34.9963V28.8943C36.2778 28.0491 37.1255 26.5975 37.1255 24.9506ZM12.1947 16.8974H30.2542L34.3322 23.4223H8.11669L12.1947 16.8974ZM22.263 25.4144H27.6384C27.4172 26.6992 26.2977 27.6807 24.9507 27.6807C23.6037 27.6808 22.4842 26.6992 22.263 25.4144ZM24.3499 29.634C24.5468 29.6591 24.7471 29.673 24.9507 29.673C26.4633 29.673 27.812 28.9581 28.677 27.8486C28.6987 27.8765 28.7231 27.902 28.7456 27.9292V35.1335H24.3499V29.634ZM17.4982 27.6808C16.1512 27.6808 15.0317 26.6993 14.8105 25.4145H20.1859C19.9647 26.6992 18.8452 27.6808 17.4982 27.6808ZM18.099 29.634V35.1335H13.7033V27.9292C13.7258 27.902 13.7502 27.8765 13.7719 27.8486C14.6367 28.9581 15.9856 29.673 17.4982 29.673C17.7018 29.673 17.9022 29.6589 18.099 29.634ZM7.35793 25.4144H12.7334C12.5121 26.6992 11.3927 27.6807 10.0457 27.6807C8.69868 27.6808 7.5792 26.6992 7.35793 25.4144ZM9.44482 40.4565V29.6334C9.64178 29.6585 9.84206 29.673 10.0457 29.673C10.6318 29.673 11.1928 29.5645 11.7111 29.3685V36.1294C11.7111 36.6797 12.1571 37.1255 12.7072 37.1255H19.0951C19.6452 37.1255 20.0912 36.6797 20.0912 36.1294V28.8947C20.5235 28.6096 20.9068 28.256 21.2244 27.8486C21.5419 28.256 21.9254 28.6096 22.3575 28.8947V36.1294C22.3575 36.6797 22.8035 37.1255 23.3536 37.1255H29.7415C30.2916 37.1255 30.7376 36.6797 30.7376 36.1294V29.3685C31.256 29.5645 31.817 29.673 32.4031 29.673C32.6068 29.673 32.807 29.6585 33.0039 29.6334V40.4565H9.44482ZM32.4032 27.6808C31.0562 27.6808 29.9368 26.6993 29.7155 25.4145H35.091C34.8697 26.6992 33.7502 27.6808 32.4032 27.6808Z" fill="#DA112B"/>
<path d="M59.5516 14.9053H42.5173C41.3809 14.9053 40.4565 15.8296 40.4565 16.966V20.16C40.4565 21.2964 41.3809 22.2207 42.5173 22.2207H59.5516C60.6879 22.2207 61.6123 21.2964 61.6123 20.16V16.966C61.6123 15.8295 60.6879 14.9053 59.5516 14.9053ZM59.6201 20.1597C59.6201 20.1975 59.5894 20.2283 59.5516 20.2283H42.5173C42.4794 20.2283 42.4487 20.1976 42.4487 20.1597V16.9657C42.4487 16.928 42.4794 16.8972 42.5173 16.8972H59.5516C59.5894 16.8972 59.6201 16.9279 59.6201 16.9657V20.1597Z" fill="#DA112B"/>
<path d="M55.2931 24.4868H42.5173C41.3809 24.4868 40.4565 25.4113 40.4565 26.5477V28.6769C40.4565 29.8133 41.3809 30.7378 42.5173 30.7378H55.2931C56.4294 30.7378 57.3538 29.8133 57.3538 28.6769V26.5477C57.3538 25.4112 56.4294 24.4868 55.2931 24.4868ZM55.3616 28.6769C55.3616 28.7148 55.3309 28.7456 55.2931 28.7456H42.5173C42.4794 28.7456 42.4487 28.7149 42.4487 28.6769V26.5477C42.4487 26.5098 42.4794 26.479 42.5173 26.479H55.2931C55.3309 26.479 55.3616 26.5097 55.3616 26.5477V28.6769Z" fill="#DA112B"/>
<path d="M43.5819 34.0688H41.4526C40.9025 34.0688 40.4565 34.5147 40.4565 35.0649C40.4565 35.6152 40.9025 36.061 41.4526 36.061H43.5819C44.132 36.061 44.578 35.6152 44.578 35.0649C44.578 34.5147 44.132 34.0688 43.5819 34.0688Z" fill="#DA112B"/>
<path d="M56.3575 34.0688H47.8403C47.2902 34.0688 46.8442 34.5147 46.8442 35.0649C46.8442 35.6152 47.2902 36.061 47.8403 36.061H56.3575C56.9076 36.061 57.3536 35.6151 57.3536 35.0649C57.3536 34.5147 56.9076 34.0688 56.3575 34.0688Z" fill="#DA112B"/>
<path d="M54.2282 38.3271H47.8403C47.2902 38.3271 46.8442 38.773 46.8442 39.3232C46.8442 39.8735 47.2902 40.3193 47.8403 40.3193H54.2282C54.7783 40.3193 55.2243 39.8735 55.2243 39.3232C55.2243 38.773 54.7783 38.3271 54.2282 38.3271Z" fill="#DA112B"/>
<path d="M24.4183 48.9736H14.8364C14.2863 48.9736 13.8403 49.4195 13.8403 49.9697C13.8403 50.52 14.2863 50.9658 14.8364 50.9658H24.4183C24.9684 50.9658 25.4144 50.52 25.4144 49.9697C25.4144 49.4195 24.9684 48.9736 24.4183 48.9736Z" fill="#DA112B"/>
<path d="M28.6768 44.7151H14.8364C14.2863 44.7151 13.8403 45.1609 13.8403 45.7112C13.8403 46.2614 14.2863 46.7073 14.8364 46.7073H28.6768C29.227 46.7073 29.6729 46.2614 29.6729 45.7112C29.6729 45.1609 29.2271 44.7151 28.6768 44.7151Z" fill="#DA112B"/>
<path d="M60.6162 44.7151H41.4526C40.9025 44.7151 40.4565 45.1609 40.4565 45.7112C40.4565 46.2614 40.9025 46.7073 41.4526 46.7073H60.6163C61.1664 46.7073 61.6124 46.2614 61.6124 45.7112C61.6124 45.1609 61.1663 44.7151 60.6162 44.7151Z" fill="#DA112B"/>
<path d="M60.6162 48.9736H41.4526C40.9025 48.9736 40.4565 49.4195 40.4565 49.9697C40.4565 50.52 40.9025 50.9658 41.4526 50.9658H60.6163C61.1664 50.9658 61.6124 50.52 61.6124 49.9697C61.6124 49.4195 61.1663 48.9736 60.6162 48.9736Z" fill="#DA112B"/>
<path d="M10.578 44.7151H8.44873C7.89862 44.7151 7.45264 45.1609 7.45264 45.7112C7.45264 46.2614 7.89862 46.7073 8.44873 46.7073H10.578C11.1281 46.7073 11.5741 46.2614 11.5741 45.7112C11.5741 45.1609 11.1281 44.7151 10.578 44.7151Z" fill="#DA112B"/>
<path d="M10.578 48.9736H8.44873C7.89862 48.9736 7.45264 49.4195 7.45264 49.9697C7.45264 50.52 7.89862 50.9658 8.44873 50.9658H10.578C11.1281 50.9658 11.5741 50.52 11.5741 49.9697C11.5741 49.4195 11.1281 48.9736 10.578 48.9736Z" fill="#DA112B"/>
<path d="M43.5819 38.3271H41.4526C40.9025 38.3271 40.4565 38.773 40.4565 39.3232C40.4565 39.8735 40.9025 40.3193 41.4526 40.3193H43.5819C44.132 40.3193 44.578 39.8735 44.578 39.3232C44.578 38.773 44.132 38.3271 43.5819 38.3271Z" fill="#DA112B"/>
</svg>
