<svg width="68" height="68" viewBox="0 0 68 68" fill="none" xmlns="http://www.w3.org/2000/svg">
<path d="M63.8099 5.32324H4.1901C1.87956 5.32324 0 7.2028 0 9.51321V49.9696C0 52.28 1.87956 54.1596 4.1901 54.1596H24.3545L23.5389 60.6845H20.1596C19.6094 60.6845 19.1635 61.1305 19.1635 61.6806C19.1635 62.2307 19.6094 62.6767 20.1596 62.6767H47.8404C48.3906 62.6767 48.8365 62.2307 48.8365 61.6806C48.8365 61.1305 48.3906 60.6845 47.8404 60.6845H44.4612L43.6455 54.1596H63.8099C66.1203 54.1596 68 52.28 68 49.9696V9.51321C68 7.2028 66.1204 5.32324 63.8099 5.32324ZM25.5466 60.6845L26.3624 54.1596H30.0284L30.388 55.598C30.8032 57.2585 32.2886 58.4181 34.0001 58.4181C35.7117 58.4181 37.1971 57.2585 37.6122 55.598L37.9719 54.1596H41.6379L42.4534 60.6845H25.5466ZM32.0818 54.1596H35.9181L35.6793 55.1148C35.4863 55.8868 34.7958 56.4259 33.9999 56.4259C33.2039 56.4259 32.5136 55.8867 32.3205 55.1148L32.0818 54.1596ZM66.0078 49.9696C66.0078 51.1815 65.0218 52.1674 63.8099 52.1674H4.1901C2.97819 52.1674 1.99219 51.1815 1.99219 49.9696V9.51321C1.99219 8.3013 2.97819 7.31543 4.1901 7.31543H63.8099C65.0218 7.31543 66.0078 8.3013 66.0078 9.51321V49.9696Z" fill="#DA112B"/>
<path d="M56.3574 9.58191H5.25464C4.7044 9.58191 4.25854 10.0278 4.25854 10.578V48.905C4.25854 49.4553 4.7044 49.9011 5.25464 49.9011H7.38402C7.93426 49.9011 8.38012 49.4553 8.38012 48.905C8.38025 48.3549 7.93426 47.9089 7.38415 47.9089H6.25087V11.5741H56.3574C56.9077 11.5741 57.3535 11.1281 57.3535 10.578C57.3535 10.0278 56.9077 9.58191 56.3574 9.58191Z" fill="#DA112B"/>
<path d="M62.7454 9.58191H60.616C60.0658 9.58191 59.6199 10.0278 59.6199 10.578C59.6199 11.1281 60.0658 11.5741 60.616 11.5741H61.7493V47.9089H11.6426C11.0923 47.9089 10.6465 48.3549 10.6465 48.905C10.6465 49.4553 11.0923 49.9011 11.6426 49.9011H62.7453C63.2955 49.9011 63.7413 49.4553 63.7413 48.905V10.578C63.7415 10.0278 63.2955 9.58191 62.7454 9.58191Z" fill="#DA112B"/>
<path d="M47.5601 20.6103C47.3811 20.3815 47.1111 20.2423 46.821 20.2292L23.399 19.1644C23.3807 19.1636 23.3628 19.1632 23.3443 19.1635C23.2056 18.7083 22.9127 18.3136 22.5161 18.0491L19.6477 16.1368C19.1901 15.8318 18.5715 15.9554 18.2665 16.4132C17.9614 16.871 18.0851 17.4894 18.5427 17.7945L21.4109 19.7064C21.4245 19.7155 21.4345 19.7291 21.439 19.7448L25.0925 32.5321C25.2065 32.9308 25.394 33.2892 25.6348 33.5986L24.298 36.2721C23.9762 36.9156 24.01 37.6651 24.3882 38.2771C24.5254 38.499 24.6994 38.688 24.8993 38.8394C24.6376 39.2961 24.4871 39.8245 24.4871 40.3876C24.4871 42.111 25.8892 43.5129 27.6125 43.5129C29.3357 43.5129 30.7378 42.1108 30.7378 40.3876C30.7378 39.988 30.6616 39.606 30.5243 39.2544H39.6056C39.4683 39.606 39.392 39.988 39.392 40.3876C39.392 42.111 40.7941 43.5129 42.5174 43.5129C44.2406 43.5129 45.6427 42.1108 45.6427 40.3876C45.6427 39.8877 45.5241 39.4153 45.3145 38.9958C45.5156 38.8136 45.6427 38.5512 45.6427 38.2583C45.6427 37.7082 45.1969 37.2622 44.6466 37.2622H26.1408C26.1266 37.2622 26.1025 37.2622 26.0825 37.2297C26.0624 37.1973 26.0732 37.1759 26.0796 37.163L27.311 34.7003C27.5616 34.7647 27.8227 34.7995 28.09 34.7995C28.2131 34.7995 28.3374 34.7922 28.4625 34.7776L42.4591 33.131C44.2668 32.9182 45.7212 31.5763 46.0782 29.7913L47.7524 21.4196C47.8094 21.1347 47.7392 20.8392 47.5601 20.6103ZM42.5171 39.2547C43.142 39.2547 43.6503 39.7631 43.6503 40.3878C43.6503 41.0127 43.142 41.521 42.5171 41.521C41.8922 41.521 41.384 41.0127 41.384 40.3878C41.384 39.763 41.8922 39.2547 42.5171 39.2547ZM27.6122 39.2547C28.2371 39.2547 28.7454 39.763 28.7454 40.3878C28.7454 41.0127 28.2371 41.521 27.6122 41.521C26.9873 41.521 26.4791 41.0127 26.4791 40.3878C26.4791 39.763 26.9873 39.2547 27.6122 39.2547ZM25.1695 25.5514L23.9212 21.1825L27.9036 21.3635L28.5941 25.5514H25.1695ZM28.2298 32.7991C27.6744 32.8644 27.1611 32.5219 27.0078 31.9849L25.7388 27.5436H28.9226L29.7594 32.6191L28.2298 32.7991ZM34.0686 32.1122L31.7402 32.3862L30.9418 27.5437H34.0686V32.1122ZM34.0686 25.5514H30.6133L29.938 21.4561L34.0686 21.6439V25.5514ZM39.1131 31.5186L36.0608 31.8778V27.5436H39.4729L39.1131 31.5186ZM39.6533 25.5514H36.0608V21.7343L39.9826 21.9126L39.6533 25.5514ZM44.1245 29.4008C43.9373 30.3369 43.1744 31.0409 42.2263 31.1525L41.1349 31.2809L41.4732 27.5437H44.4959L44.1245 29.4008ZM44.8945 25.5514H41.6537L41.9748 22.0032L45.5714 22.1666L44.8945 25.5514Z" fill="#DA112B"/>
</svg>
