<svg width="55" height="68" viewBox="0 0 55 68" fill="none" xmlns="http://www.w3.org/2000/svg">
<path d="M38.1817 12.5586C38.1024 10.8896 36.7311 9.58189 35.0599 9.58189H28.5046V8.44873C28.5044 3.79007 24.7145 0 20.056 0C15.3974 0 11.6074 3.79007 11.6074 8.4486V9.58176H5.05188C3.38084 9.58176 2.00968 10.8893 1.93012 12.5585L0.00367954 53.0149C-0.0374923 53.8769 0.267977 54.6956 0.863508 55.3203C1.45917 55.9449 2.26242 56.2889 3.12557 56.2889H10.4742C11.0245 56.2889 11.4703 55.843 11.4703 55.2928C11.4703 54.7425 11.0245 54.2967 10.4742 54.2967H3.12544C2.81253 54.2967 2.52114 54.172 2.30519 53.9454C2.08923 53.7188 1.9786 53.4221 1.99334 53.1095L3.92005 12.6532C3.94901 12.048 4.44612 11.5739 5.05188 11.5739H11.6072V12.9394C10.3712 13.3563 9.47812 14.526 9.47812 15.9011C9.47812 17.6245 10.8802 19.0265 12.6035 19.0265C14.3267 19.0265 15.7288 17.6244 15.7288 15.9011C15.7288 14.526 14.8358 13.3564 13.5996 12.9394V11.5741H26.5124V12.9395C25.2762 13.3564 24.3831 14.5261 24.3831 15.9012C24.3831 17.6246 25.7852 19.0266 27.5085 19.0266C29.2317 19.0266 30.6338 17.6245 30.6338 15.9012C30.6338 14.5261 29.7408 13.3566 28.5046 12.9395V11.5741H35.0599C35.666 11.5741 36.1631 12.0481 36.1918 12.6533L37.1598 32.9824C37.186 33.532 37.6551 33.9551 38.2021 33.93C38.7517 33.904 39.1759 33.4371 39.1498 32.8877L38.1817 12.5586ZM13.7366 15.9011C13.7366 16.526 13.2283 17.0343 12.6035 17.0343C11.9786 17.0343 11.4703 16.526 11.4703 15.9011C11.4703 15.2762 11.9786 14.768 12.6035 14.768C13.2283 14.768 13.7366 15.2762 13.7366 15.9011ZM26.5123 9.58176H13.5994V8.4486H13.5996C13.5996 4.88843 16.4959 1.99219 20.056 1.99219C23.616 1.99219 26.5123 4.88856 26.5123 8.4486V9.58176ZM28.6415 15.9011C28.6415 16.526 28.1332 17.0343 27.5083 17.0343C26.8835 17.0343 26.3752 16.526 26.3752 15.9011C26.3752 15.2762 26.8835 14.768 27.5083 14.768C28.1332 14.768 28.6415 15.2762 28.6415 15.9011Z" fill="#DA112B"/>
<path d="M42.4133 44.7151H16.8619C15.1385 44.7151 13.7366 46.1172 13.7366 47.8404V64.8747C13.7366 66.5981 15.1387 68 16.8619 68H42.4133C44.1368 68 45.5388 66.5979 45.5388 64.8747V47.8404C45.5388 46.1171 44.1367 44.7151 42.4133 44.7151ZM42.4133 66.0079H16.8619C16.237 66.0079 15.7288 65.4996 15.7288 64.8747V47.8404C15.7288 47.2155 16.237 46.7073 16.8619 46.7073H42.4133C43.0382 46.7073 43.5466 47.2155 43.5466 47.8404V64.8747C43.5466 65.4996 43.0382 66.0079 42.4133 66.0079Z" fill="#DA112B"/>
<path d="M50.9308 36.1978H25.3793C23.6559 36.1978 22.2539 37.5999 22.2539 39.3231V41.4525C22.2539 41.7166 22.3588 41.9699 22.5456 42.1569C22.7324 42.3437 22.9857 42.4486 23.25 42.4486L52.0639 42.4484V44.7148H48.8015C48.2513 44.7148 47.8054 45.1606 47.8054 45.7108C47.8054 46.2611 48.2513 46.7069 48.8015 46.7069H52.0639V56.3572C52.0639 56.9821 51.5557 57.4904 50.9308 57.4904H48.8015C48.2513 57.4904 47.8054 57.9362 47.8054 58.4865C47.8054 59.0367 48.2513 59.4826 48.8015 59.4826H50.9308C52.6542 59.4826 54.0561 58.0805 54.0561 56.3572V39.3231C54.0561 37.5997 52.654 36.1978 50.9308 36.1978ZM52.0639 40.4563L24.2461 40.4564V39.3231C24.2461 38.6982 24.7544 38.1899 25.3793 38.1899H50.9308C51.5557 38.1899 52.0639 38.6982 52.0639 39.3231V40.4563Z" fill="#DA112B"/>
</svg>
