<svg width="68" height="68" viewBox="0 0 68 68" fill="none" xmlns="http://www.w3.org/2000/svg">
<g clip-path="url(#clip0)">
<path d="M51.9912 53.8893C51.8204 52.5972 51.0746 51.4832 49.9449 50.8328L37.1845 43.4859C35.5594 42.5503 33.4983 42.8227 32.1723 44.1487L28.8704 47.4506C28.2216 48.0995 27.1912 48.1521 26.4738 47.5729C24.5261 46.0004 22.6077 44.2722 20.7717 42.4364C18.9358 40.6005 17.2075 38.6819 15.6351 36.7342C15.0559 36.0168 15.1085 34.9865 15.7576 34.3376L19.0594 31.0358C20.3853 29.7098 20.6578 27.6486 19.7223 26.0237L12.3755 13.2632C11.7251 12.1337 10.6111 11.3879 9.31884 11.2168C8.0275 11.0463 6.75702 11.4763 5.83517 12.398L2.04788 16.1853C-3.35825 21.5915 2.28442 35.7038 14.8942 48.3137C24.2661 57.6855 34.4665 63.2089 41.3073 63.2081C43.6707 63.2079 45.6346 62.5482 47.0226 61.16L50.8099 57.3727C51.7315 56.4513 52.1622 55.1815 51.9912 53.8893ZM49.4011 55.9639L48.8959 56.4691L37.9707 50.2339C37.4932 49.9614 36.8845 50.1274 36.6117 50.6053C36.3389 51.0831 36.5052 51.6915 36.9832 51.9643L47.4355 57.9296L45.6137 59.7511C43.5615 61.8034 39.3294 61.7028 34.0035 59.4756C28.3182 57.0981 22.0322 52.6337 16.3033 46.9049C10.5743 41.176 6.11009 34.8898 3.73248 29.2047C1.50508 23.8784 1.40481 19.6466 3.45702 17.5943L5.40193 15.6494L6.09229 16.8485C6.27677 17.1685 6.61199 17.3478 6.95663 17.3478C7.12531 17.3478 7.29624 17.3049 7.45282 17.2148C7.92975 16.9402 8.09364 16.3312 7.81912 15.8542L6.86101 14.1903L7.24417 13.8072C7.6551 13.3964 8.19843 13.1731 8.76833 13.1731C8.86422 13.1731 8.96078 13.1794 9.0576 13.1923C9.73016 13.2811 10.3103 13.6695 10.6487 14.2574L17.9957 27.0178C18.4829 27.8637 18.3409 28.9367 17.6506 29.6267L16.4437 30.8337L9.94824 19.552C9.67371 19.0751 9.0645 18.9112 8.58771 19.1858C8.11078 19.4602 7.94689 20.0694 8.22141 20.5464L14.9848 32.293L14.3488 32.9289C12.9777 34.2999 12.8643 36.474 14.0849 37.9861C15.7015 39.9886 17.4772 41.9601 19.3629 43.8458C21.2486 45.7315 23.2199 47.5072 25.2225 49.1236C26.7344 50.3443 28.9087 50.231 30.2797 48.8599L30.7387 48.4009L33.1983 49.8046C33.3541 49.8934 33.5237 49.9358 33.6913 49.9358C34.0372 49.9358 34.3737 49.7553 34.5575 49.4331C34.8303 48.9552 34.664 48.3468 34.1861 48.074L32.1994 46.9402L33.5817 45.5579C34.2718 44.8676 35.3445 44.7257 36.1908 45.2128L48.9512 52.5597C49.5393 52.8983 49.9275 53.4783 50.0164 54.1508C50.1052 54.8233 49.881 55.4843 49.4011 55.9639Z" fill="#DA112B"/>
<path d="M57.7317 15.7956C57.1917 13.2035 55.0872 11.099 52.4949 10.5587C50.4277 10.1279 48.3198 10.6314 46.7107 11.9397C45.1015 13.2482 44.1785 15.187 44.1785 17.2591C44.1785 17.8093 44.6245 18.2553 45.1747 18.2553C45.7251 18.2553 46.1709 17.8092 46.1709 17.2591C46.1709 15.7895 46.8258 14.4141 47.9675 13.4856C49.109 12.5574 50.6106 12.2015 52.0881 12.5093C53.916 12.8904 55.3999 14.3743 55.781 16.2022C56.313 18.755 54.8514 21.2173 52.3812 21.9297C50.9779 22.3344 50.035 23.55 50.035 24.9546C50.035 25.5049 50.481 25.9509 51.0312 25.9509C51.5814 25.9509 52.0274 25.5048 52.0274 24.9546C52.0274 24.4466 52.3913 24.0004 52.9332 23.8443C56.4159 22.8399 58.4787 19.3798 57.7317 15.7956Z" fill="#DA112B"/>
<path d="M51.0421 27.7764H51.0314C50.4811 27.7764 50.0405 28.2225 50.0405 28.7726C50.0405 29.3227 50.4918 29.7688 51.0421 29.7688C51.5924 29.7688 52.0383 29.3227 52.0383 28.7726C52.0383 28.2225 51.5922 27.7764 51.0421 27.7764Z" fill="#DA112B"/>
<path d="M63.8092 4.79175H38.2534C35.9426 4.79175 34.0627 6.67158 34.0627 8.98238V31.3438C34.0627 33.6546 35.9426 35.5344 38.2534 35.5344H42.5813V40.7066C42.5813 41.3271 42.9518 41.8815 43.525 42.119C43.7153 42.1977 43.9144 42.236 44.1115 42.236C44.5086 42.236 44.8977 42.0807 45.1908 41.7875L51.4438 35.5344H63.809C66.1198 35.5345 67.9999 33.6546 67.9999 31.3438V8.98238C67.9999 6.67158 66.12 4.79175 63.8092 4.79175ZM66.0075 31.3438C66.0075 32.5559 65.0213 33.5419 63.8092 33.5419H51.0313C50.7671 33.5419 50.5137 33.6469 50.3267 33.8337L44.5738 39.5868V34.5382C44.5738 33.9879 44.1278 33.5419 43.5776 33.5419H38.2534C37.0412 33.5419 36.0552 32.5559 36.0552 31.3438V8.98238C36.0552 7.7702 37.0412 6.7842 38.2534 6.7842H63.8092C65.0213 6.7842 66.0075 7.7702 66.0075 8.98238V31.3438Z" fill="#DA112B"/>
</g>
<defs>
<clipPath id="clip0">
<rect width="68" height="68" fill="white"/>
</clipPath>
</defs>
</svg>
