<svg width="18" height="18" viewBox="0 0 18 18" fill="none" xmlns="http://www.w3.org/2000/svg">
<g clip-path="url(#clip0)">
<path d="M16.3629 12.8339L8.11275 6.08383C8.00025 5.99232 7.84499 5.97284 7.71449 6.03584C7.58325 6.0981 7.5 6.23008 7.5 6.37486V17.625C7.5 17.79 7.608 17.9363 7.76624 17.9843C7.80224 17.9948 7.83898 18 7.87498 18C7.998 18 8.11647 17.9393 8.187 17.8328L11.076 13.5H16.1251C16.2841 13.5 16.4251 13.4002 16.4784 13.2502C16.5324 13.1009 16.4858 12.9344 16.3629 12.8339ZM10.875 12.7499C10.7497 12.7499 10.6327 12.8129 10.563 12.9164L8.24996 16.3859V7.1661L15.0743 12.7499H10.875V12.7499Z" fill="#DA112B"/>
<path d="M10.1631 0.425001C6.88109 -0.836528 3.18654 0.805995 1.92427 4.08654C0.66274 7.36782 2.30526 11.0631 5.58581 12.3254C5.63007 12.3419 5.67581 12.3502 5.72081 12.3502C5.87156 12.3502 6.01331 12.2586 6.07108 12.1094C6.14533 11.9166 6.04857 11.6992 5.85581 11.6249C2.96079 10.5119 1.51104 7.25082 2.6248 4.3558C3.73857 1.46079 6.99809 0.0109957 9.89388 1.1255C12.7889 2.23853 14.2379 5.49956 13.1249 8.39461C13.0507 8.58737 13.1474 8.80485 13.3402 8.8791C13.5337 8.95262 13.7497 8.85734 13.8247 8.66384C15.0862 5.38256 13.4437 1.68727 10.1631 0.425001Z" fill="#DA112B"/>
<path d="M11.6445 4.7008C11.1975 3.69353 10.3845 2.92103 9.35619 2.52576C8.32719 2.12976 7.20667 2.15827 6.20013 2.60603C5.19286 3.05304 4.42036 3.86604 4.02509 4.89431C3.62982 5.92257 3.65833 7.04309 4.10535 8.05036C4.55237 9.05764 5.36537 9.83013 6.39364 10.2254C6.4379 10.2419 6.48364 10.2502 6.52864 10.2502C6.67939 10.2502 6.82114 10.1586 6.87813 10.0094C6.95238 9.81664 6.85563 9.59916 6.66287 9.5249C5.82136 9.20164 5.15608 8.56938 4.7901 7.74587C4.42486 6.92162 4.40085 6.00508 4.72485 5.16357C5.04886 4.32206 5.68038 3.65679 6.50463 3.29155C7.32814 2.9263 8.24464 2.90229 9.08693 3.2263C9.92844 3.54956 10.5937 4.18182 10.9597 5.00533C11.3249 5.82958 11.349 6.74612 11.0249 7.58763C10.9507 7.78039 11.0467 7.99787 11.2402 8.07212C11.433 8.14564 11.6497 8.04962 11.7247 7.85686C12.1207 6.82859 12.0923 5.70731 11.6445 4.7008Z" fill="#DA112B"/>
</g>
<defs>
<clipPath id="clip0">
<rect width="18" height="18" fill="white"/>
</clipPath>
</defs>
</svg>
